<svg version="1.1" xmlns="http://www.w3.org/2000/svg" xmlns:xlink="http://www.w3.org/1999/xlink" width="98.23508" height="246.54891" viewBox="0,0,98.23508,246.54891"><g transform="translate(-190.88697,-55.46345)"><g data-paper-data="{&quot;isPaintingLayer&quot;:true}" fill="none" fill-rule="nonzero" stroke="#000000" stroke-width="10" stroke-linejoin="miter" stroke-miterlimit="10" stroke-dasharray="" stroke-dashoffset="0" style="mix-blend-mode: normal"><path d="M282.66298,128.09326l1.4371,109.962l-42.05735,55.65523l-45.10079,-59.87603" stroke-linecap="round"/><path d="M196.82894,230.58748l-0.92902,-98.29697l40.18027,-67.92673l45.59198,59.18738" stroke-linecap="round"/><path d="M220.55708,182.43339c0.08837,-15.94636 8.40586,-28.78933 18.57761,-28.68557c10.17176,0.10376 18.34595,13.11495 18.25758,29.06131c-0.08837,15.94636 -8.40586,28.78933 -18.57761,28.68557c-10.17176,-0.10376 -18.34595,-13.11495 -18.25758,-29.06131z" stroke-linecap="butt"/><path d="M226.17006,203.59166l-18.64224,40.34598" stroke-linecap="round"/><path d="M281.19819,244.68911l-27.16326,-46.9214" stroke-linecap="round"/><path d="M276.92075,130.25583l-22.27959,31.97953" stroke-linecap="round"/><path d="M229.71202,155.3176l-19.43925,-37.40268" stroke-linecap="round"/></g></g></svg>