<svg version="1.1" xmlns="http://www.w3.org/2000/svg" xmlns:xlink="http://www.w3.org/1999/xlink" width="114.03603" height="166.87548" viewBox="0,0,114.03603,166.87548"><g transform="translate(-182.98199,-96.56226)"><g data-paper-data="{&quot;isPaintingLayer&quot;:true}" fill="#9966ff" fill-rule="nonzero" stroke="none" stroke-width="0.5" stroke-linecap="butt" stroke-linejoin="miter" stroke-miterlimit="10" stroke-dasharray="" stroke-dashoffset="0" style="mix-blend-mode: normal"><path d="M217.15328,260.58074c0.26884,-1.71502 1.54189,-2.05248 2.2949,-2.09856c0.01471,-0.01951 0.02943,-0.039 0.04415,-0.05848c-0.19253,-0.11189 -0.37918,-0.23383 -0.55834,-0.36858c-5.89683,-4.43539 -10.21693,-12.60562 -14.48688,-18.46311c-5.40222,-7.41074 -11.75266,-14.82502 -15.93182,-23.03808c-4.29057,-8.43202 -6.18813,-18.40188 -5.33251,-27.74478c0.47747,-5.04666 1.2175,-10.00597 2.02614,-15.01003c0.19595,-1.21256 0.1487,-2.49649 0.61353,-3.63343c2.72139,-6.65626 9.68963,-10.26454 11.7821,-17.21635c1.11805,-3.71451 0.70352,-7.60721 0.94478,-11.38693c0.19259,-3.01712 1.0631,-5.96746 1.22847,-8.9862c0.18506,-3.3783 0.18656,-6.77663 0.63414,-10.13026c0.2361,-1.76906 1.0246,-7.90461 1.38365,-8.68219c2.22271,-4.81363 8.20871,-8.07909 12.27759,-11.05385c4.8158,-1.7323 9.83267,-3.84808 14.82948,-4.99808c8.56748,-1.97179 17.2292,-1.07743 25.77483,0.22809c1.63327,0.24952 7.67725,1.159 8.08274,1.32445c5.02207,2.04916 8.67922,7.87013 10.04586,12.87874c1.44048,5.27924 0.22173,10.6345 -0.51659,15.89424c-0.62494,4.45207 -0.92575,9.29596 -2.09917,13.62781c-0.58968,2.1769 -1.6724,4.23129 -2.00618,6.46181c-0.92236,3.63717 1.07203,3.02347 4.00153,5.56015c1.28407,1.11189 2.31316,2.49231 3.55876,3.64714c3.65885,3.3922 8.26627,6.08997 11.64959,9.75409c3.51586,3.80766 6.44695,8.75022 8.22709,13.57818c2.14036,5.80491 1.41956,9.39892 0.48155,15.36196c-1.97388,12.54817 -7.62941,24.14989 -11.62647,36.14236c-2.31418,4.71974 -3.19566,9.54608 -5.97013,14.05502c-0.89483,1.45424 -1.48097,3.32419 -2.95678,4.18297c-1.59585,0.92863 -3.64413,0.74467 -5.49046,0.73253c-0.00823,-0.00005 -9.31623,-1.39527 -9.75319,-1.57761c-2.41138,-1.00626 -4.33952,-2.93134 -6.65502,-4.14202c-1.709,-0.89356 -5.17641,-2.60026 -7.24306,-2.12633c-1.68228,0.38578 -6.52111,3.56024 -7.72871,4.36628c-4.50084,3.00417 -8.44789,6.10905 -11.9419,9.87974c-0.00258,0.31844 -0.07335,0.67411 -0.24045,1.06881c-0.48748,1.15149 -1.30707,1.48321 -2.00461,1.52715c-0.63047,0.78189 -1.24521,1.59264 -1.84491,2.4362l-3.41105,0.86414c0,0 -2.46984,-0.38716 -2.08267,-2.857z"/></g></g></svg>