<svg version="1.1" xmlns="http://www.w3.org/2000/svg" xmlns:xlink="http://www.w3.org/1999/xlink" width="748.50225" height="613.90765" viewBox="0,0,748.50225,613.90765"><g transform="translate(0.99099,226.15615)"><g data-paper-data="{&quot;isPaintingLayer&quot;:true}" fill-rule="nonzero" stroke-linecap="butt" stroke-linejoin="miter" stroke-miterlimit="10" stroke-dasharray="" stroke-dashoffset="0" style="mix-blend-mode: normal"><path d="M-0.99099,87.65768v-313.81382h265.76577v313.81382z" fill="#ffffff" stroke="none" stroke-width="0"/><path d="M617.63889,46.91818c67.58439,0 122.37237,52.77124 122.37237,117.86787c0,65.09663 -54.78797,117.86787 -122.37237,117.86787c-67.58439,0 -122.37237,-52.77124 -122.37237,-117.86787c0,-65.09663 54.78797,-117.86787 122.37237,-117.86787z" fill="none" stroke="#ffffff" stroke-width="15"/><path d="M616.88814,82.95421c40.63356,0 73.57357,34.95675 73.57357,78.07808c0,43.12133 -32.94001,78.07808 -73.57357,78.07808c-40.63356,0 -73.57357,-34.95675 -73.57357,-78.07808c0,-43.12133 32.94001,-78.07808 73.57357,-78.07808z" fill="none" stroke="#000000" stroke-width="15"/><path d="M226.2333,-5.08211l27.2089,-56.89135l273.62029,130.86188l-27.20891,56.89135z" fill="#ffffff" stroke="#ffffff" stroke-width="15"/><path d="M424.69595,380.2515v-282.28228h57.05706v282.28228z" fill="#ffffff" stroke="#ffffff" stroke-width="15"/><path d="M480.2515,380.2515v-96.0961h124.62462v96.0961z" fill="#ffffff" stroke="#ffffff" stroke-width="15"/><path d="M452.47373,196.31757h45.04505v85.58559h-45.04505z" fill="#ffffff" stroke="#ffffff" stroke-width="15"/><path d="M478.13336,268.04285l15.46572,-33.06652l63.84564,23.24959l-15.46571,33.06652z" fill="#ffffff" stroke="#ffffff" stroke-width="15"/></g></g></svg>