<svg version="1.1" xmlns="http://www.w3.org/2000/svg" xmlns:xlink="http://www.w3.org/1999/xlink" width="40.98684" height="163.58601" viewBox="0,0,40.98684,163.58601"><g transform="translate(-219.50829,-97.63589)"><g data-paper-data="{&quot;isPaintingLayer&quot;:true}" fill="none" fill-rule="nonzero" stroke="#000000" stroke-width="10" stroke-linejoin="miter" stroke-miterlimit="10" stroke-dasharray="" stroke-dashoffset="0" style="mix-blend-mode: normal"><path d="M254.98237,149.41817l0.50468,66.01067l-14.76969,33.41008l-15.83848,-35.94384" stroke-linecap="round"/><path d="M224.8392,210.9459l-0.32625,-59.0081l14.1105,-40.77671l16.01098,35.53044" stroke-linecap="round"/><path d="M233.17204,182.03879c0.03103,-9.57267 2.95197,-17.28236 6.52408,-17.22007c3.57212,0.06229 6.44273,7.87296 6.41169,17.44563c-0.03103,9.57267 -2.95197,17.28236 -6.52408,17.22007c-3.57212,-0.06229 -6.44273,-7.87296 -6.41169,-17.44563z" stroke-linecap="butt"/><path d="M235.14321,194.74019l-6.54678,24.21987" stroke-linecap="round"/><path d="M254.46797,219.41117l-9.53918,-28.16712" stroke-linecap="round"/><path d="M252.96582,150.71637l-7.82414,19.19745" stroke-linecap="round"/><path d="M236.38707,165.76106l-6.82667,-22.45299" stroke-linecap="round"/></g></g></svg>