<svg version="1.1" xmlns="http://www.w3.org/2000/svg" xmlns:xlink="http://www.w3.org/1999/xlink" width="152.02062" height="190.90323" viewBox="0,0,152.02062,190.90323"><g transform="translate(-165.48443,87.45278)"><g data-paper-data="{&quot;isPaintingLayer&quot;:true}" fill="#9966ff" fill-rule="nonzero" stroke="none" stroke-width="0.5" stroke-linecap="butt" stroke-linejoin="miter" stroke-miterlimit="10" stroke-dasharray="" stroke-dashoffset="0" style="mix-blend-mode: normal"><path d="M316.10751,49.71438c2.23607,1.11803 1.11803,3.3541 1.11803,3.3541c-2.09322,4.17115 -2.87423,8.94954 -5.00358,13.00712c-2.07964,3.96286 -5.68138,7.93246 -8.58831,11.2981c-1.0156,1.17587 -1.84612,2.54755 -3.06321,3.51336c-0.36946,0.29318 -8.4017,4.68638 -9.04525,5.06888c-8.01404,4.76313 -15.75895,10.44726 -24.74515,13.36621c-4.57522,1.48615 -9.71315,2.09742 -14.4241,3.10129c-6.1219,0.51627 -12.17185,0.89684 -18.31372,1.02645l-2.05274,0.00056c0,0 -1.73516,0 -2.31434,-1.44557c-8.24059,0.27491 -16.39501,-0.45369 -24.67866,-1.25844c-5.47137,-0.58282 -12.01623,-1.63798 -16.13256,-5.89455c-6.65165,-6.87826 -10.83261,-17.56684 -13.14408,-26.57032c-0.97057,-3.78053 -2.29373,-7.49018 -2.88646,-11.34804c-0.11936,-0.77684 -0.75059,-11.44785 -0.86107,-12.44087c-0.6113,-5.49472 -2.52147,-11.2326 -2.56842,-16.76363c-0.01015,-1.19564 1.13289,-11.0354 1.19285,-12.47881c0.31939,-7.68896 0.46635,-15.59289 0.35413,-23.2787c-0.04686,-3.63206 0.86965,-7.26636 0.53982,-10.88372c-0.35752,-3.92111 -2.33765,-7.52189 -3.35841,-11.32464c-1.56244,-5.82073 -3.17119,-12.29551 -2.48514,-18.30181c0.27779,-2.43201 -0.14761,-5.09126 0.94308,-7.28266c0.95218,-1.91308 3.17457,-2.86219 4.7979,-4.2519c0.34365,-0.29419 0.69226,-0.58213 1.045,-0.86485c0.19928,-0.96236 1.01428,-1.57361 1.01428,-1.57361l2.1728,-1.6296c4.29973,-3.21696 8.94985,-6.1856 13.46618,-9.07193c0,0 0.59261,-0.37712 1.34949,-0.41743c11.99265,-7.94543 24.63866,-14.27551 39.74255,-13.79666c3.37316,0.30998 12.25636,0.06564 15.16549,1.68038c2.47675,1.37475 6.53857,8.24397 7.78646,10.55469c4.0385,7.47814 5.60819,15.75958 8.19111,23.77716c0.60753,1.88582 1.27719,3.9592 2.13111,5.97149c2.42715,0.58615 4.96526,0.86481 7.23172,1.90246c12.41518,5.68403 21.49989,16.54177 24.92797,29.49643c4.99215,1.2703 9.98423,2.54064 14.97619,3.8112c0.22464,0.60618 0.4588,1.23586 0.71299,1.89593c3.86395,16.87327 1.03853,34.4895 1.35038,51.63063c0.03409,1.87381 0.44607,4.3707 0.56515,6.89942c0.52225,-0.55911 1.48576,-1.18052 2.89053,-0.47813zM276.21625,56.78793c0.06713,-0.07102 0.13991,-0.14256 0.21835,-0.21281c-0.02399,-0.00628 -0.04797,-0.01259 -0.07195,-0.01891z"/></g></g></svg>