<svg version="1.1" xmlns="http://www.w3.org/2000/svg" xmlns:xlink="http://www.w3.org/1999/xlink" width="126.21877" height="132.4593" viewBox="0,0,126.21877,132.4593"><g transform="translate(-179.7791,-194.65911)"><g data-paper-data="{&quot;isPaintingLayer&quot;:true}" fill="#9966ff" fill-rule="nonzero" stroke="none" stroke-width="0.5" stroke-linecap="butt" stroke-linejoin="miter" stroke-miterlimit="10" stroke-dasharray="" stroke-dashoffset="0" style="mix-blend-mode: normal"><path d="M189.82117,261.37189c-1.39397,-1.3845 -2.78588,-2.77105 -4.16001,-4.17519c-0.79186,-0.80916 -1.82739,-1.4538 -2.33667,-2.46495c-0.72677,-1.44299 -1.96442,-8.17585 -2.25653,-9.64436c-1.00823,-5.06852 -1.6685,-10.49888 -1.04799,-15.69c0.20966,-1.75402 0.79992,-3.44156 1.23773,-5.15296c0.34853,-1.36244 0.31679,-2.9136 1.12097,-4.06729c0.02948,-0.04229 5.4211,-4.7697 6.59349,-5.65595c8.09539,-6.11961 16.0961,-9.26432 25.95346,-11.45431c7.02032,-1.75541 13.86552,-5.15497 20.95124,-6.40309c1.29308,-0.22777 7.63382,-0.44023 9.33232,-0.64681c4.80455,-0.58435 10.94577,-2.08301 15.77841,-0.9388c6.4337,1.5233 13.0955,8.60686 16.52552,13.9562c0.80496,1.2554 1.14338,2.78332 2.01002,3.99696c0.78024,1.09264 1.99118,1.81175 2.86551,2.83066c5.19195,6.05047 9.58686,12.84355 14.0017,19.46821c0.1485,0.25107 5.16911,8.73032 5.24279,8.89094c3.13624,6.8368 4.20134,15.73709 4.33511,23.16555c0.01066,0.59176 0.06131,10.0566 -0.00059,10.43791c-0.55033,3.3903 -2.479,6.79436 -3.81855,9.89311c-4.0446,9.3563 -8.42953,18.70973 -16.62196,25.26924c-4.98682,3.99284 -11.30798,5.7628 -17.21043,7.87588c-8.89269,2.95093 -18.20628,3.67379 -27.43441,5.10776c-5.18358,0.80548 -10.05199,1.01088 -15.30019,1.01411c-1.82524,0.00112 -3.68434,0.31971 -5.47562,-0.0307c-4.27017,-0.83532 -6.37181,-2.73398 -9.7297,-5.18352c-4.4328,-3.23368 -7.58758,-6.39072 -10.87679,-10.77049c-0.61614,-0.82043 -4.79192,-6.20573 -5.3097,-7.54329c-0.62097,-1.60416 -0.49303,-3.42343 -1.03787,-5.05502c-0.47603,-1.42551 -1.47797,-2.63155 -1.99961,-4.04102c-0.68635,-1.85451 -1.71721,-7.43858 -2.0728,-9.21647c-1.2194,-4.98592 -1.0976,-9.524 -1.08002,-14.64421c0.01288,-3.7514 -0.40235,-4.73098 1.25421,-8.09838c0.18169,-0.36934 0.37158,-0.71039 0.56696,-1.02973z"/></g></g></svg>