<svg version="1.1" xmlns="http://www.w3.org/2000/svg" xmlns:xlink="http://www.w3.org/1999/xlink" width="109.03462" height="91.42015" viewBox="0,0,109.03462,91.42015"><g transform="translate(-183.99998,-272.02847)"><g data-paper-data="{&quot;isPaintingLayer&quot;:true}" fill="#9966ff" fill-rule="nonzero" stroke="none" stroke-width="0.5" stroke-linecap="butt" stroke-linejoin="miter" stroke-miterlimit="10" stroke-dasharray="" stroke-dashoffset="0" style="mix-blend-mode: normal"><path d="M272.01364,354.5806c0.03275,1.99741 -2.06643,2.37908 -2.06643,2.37908c-3.19975,0.58177 -6.47346,0.84314 -9.60138,1.73364c-2.83381,0.80677 -5.36157,2.5485 -8.22828,3.22921c-6.36601,1.51163 -16.10008,2.3987 -22.39051,0.23095c-0.19172,-0.06607 -8.89163,-5.11999 -9.21406,-5.34119c-2.95805,-2.02937 -5.41649,-4.7993 -7.49395,-7.72378c-0.65526,-0.92242 -1.6375,-1.71379 -1.89643,-2.81522c-0.51246,-2.17991 0.058,-6.10185 -0.11877,-8.63503c-0.20081,-2.87759 -0.63759,-5.73385 -0.94562,-8.60194c-3.08704,-10.01613 -15.4062,-2.61004 -21.72079,-9.45533c-3.46792,-3.75938 -4.33242,-10.36007 -4.33742,-15.08098c-0.00623,-5.8912 1.58472,-9.8118 3.75643,-15.2309c0.58827,-1.46792 0.77089,-3.20247 1.8295,-4.3773c3.43991,-3.81758 10.02652,-5.98165 14.78549,-7.1131c8.25523,-1.96268 16.42886,-3.20811 24.83202,-4.35275c6.05223,-0.82268 12.12701,-1.24193 18.23146,-1.31663c0.05808,-0.00071 9.24125,-0.13266 9.5693,-0.05796c10.27119,2.3387 17.69702,11.28147 24.85599,18.31599c2.95676,2.90536 7.72474,6.8715 9.48446,10.58872c0.81064,1.71239 0.70066,3.7239 1.02972,5.58968c1.48725,8.43267 0.22642,16.24638 -1.45483,24.52311c-2.07243,4.64131 -4.13878,9.28271 -6.18027,13.93754c-0.71751,1.63601 -1.15449,3.43112 -2.17202,4.89945c-1.02105,1.47341 -2.557,2.51308 -3.8355,3.76963l-4.62541,1.24986c0,0 -1.17408,0.29352 -2.09269,-0.34476z"/></g></g></svg>