<svg version="1.1" xmlns="http://www.w3.org/2000/svg" xmlns:xlink="http://www.w3.org/1999/xlink" width="341.01936" height="163.06559" viewBox="0,0,341.01936,163.06559"><g transform="translate(-90.98062,-107.85121)"><g data-paper-data="{&quot;isPaintingLayer&quot;:true}" fill-rule="nonzero" stroke-linejoin="miter" stroke-miterlimit="10" stroke-dasharray="" stroke-dashoffset="0" style="mix-blend-mode: normal"><path d="M378.64428,258.83582c0,0 -2.21097,3.39183 -3.09552,1.98467c-0.30186,-0.48022 -2.79111,0.03954 -3.32862,-0.9168c-6.37292,-11.3388 -27.02151,-51.97508 -27.02151,-51.97508c0,0 -1.26467,-45.62203 -1.48191,-47.18061c-0.02275,-0.16345 -0.19675,-1.21204 0.91221,-1.35122c3.64141,-0.45698 16.82778,-0.47847 16.82778,-0.47847c0,0 0.87175,1.23687 0.8919,1.52381c0.68095,9.6911 16.93925,95.5485 16.96582,95.76075z" data-paper-data="{&quot;index&quot;:null}" fill="#2e2e2e" stroke="none" stroke-width="0" stroke-linecap="butt"/><path d="M328.96601,205.62913l-2.83963,-42.99325l17.78147,-1.01275l2.03569,41.79024z" fill="#7b5427" stroke="none" stroke-width="0" stroke-linecap="butt"/><path d="M326.39867,162.50868c0.1119,5.06079 1.78892,30.28757 2.56386,40.40158c0.02199,0.2868 0.15256,-0.95628 0.17284,-0.6921c0.17961,2.33922 -0.22718,4.43132 -0.22718,4.43132c0,0 -11.33198,1.43748 -15.00105,1.51741c-1.11739,0.02436 -1.94282,-0.15759 -1.94417,-0.32263c-0.01281,-1.57359 -1.99703,-31.60254 -1.99703,-31.60254l10.54638,-45.61641c0,0 1.58519,6.6515 2.48744,8.85609c0.77483,1.89329 1.27842,8.36805 1.70569,16.1535c0.42729,7.78549 1.6932,6.87373 1.6932,6.87373z" fill="#2e2e2e" stroke="none" stroke-width="0" stroke-linecap="butt"/><path d="M232.73108,173.23104c0,0 4.09652,3.94315 9.36893,5.84147c4.62338,1.66461 10.56974,1.40625 13.56095,1.01573c2.67465,-0.34918 7.38707,-1.98745 10.28992,-4.20526c4.45264,-3.40186 6.38294,-7.82233 6.38294,-7.82233c0,0 11.73611,67.67639 10.69908,67.7969c-3.35778,0.39016 -35.99748,3.91782 -44.38041,3.99451c-0.17129,0.00157 -5.92139,-66.62098 -5.92139,-66.62098z" fill="#c3c3c3" stroke="#000000" stroke-width="0" stroke-linecap="butt"/><path d="M284.99046,240.90661c-1.03978,0.09367 -5.87965,-4.6124 -5.87965,-4.6124l-7.30491,-79.8847l31.97119,-0.5726c0,0 4.5134,67.60549 5.46294,74.4061c0.06406,0.45885 -1.01484,8.83373 -2.42938,9.08008c-0.24274,0.04229 -20.72921,1.48525 -21.82021,1.58353z" data-paper-data="{&quot;index&quot;:null}" fill="#d4d4d4" stroke="none" stroke-width="0" stroke-linecap="butt"/><path d="M240.55102,168.21888c-0.45826,-6.85126 0.35034,-9.49744 0.35034,-9.49744l27.30039,-1.35757l0.9051,9.48889c0,0 -28.48937,2.35941 -28.55582,1.36612z" fill="#d4d4d4" stroke="none" stroke-width="0" stroke-linecap="butt"/><path d="M210.81336,245.99865c0,0 -2.69635,-0.76985 -2.76277,-1.76314c-0.45826,-6.85126 -5.42871,-81.16376 -5.42871,-81.16376l31.41526,-5.96382l5.85706,83.21616c0,0 -0.60199,2.36565 -1.639,2.48615c-3.86794,0.4494 -27.44187,3.1884 -27.44187,3.1884z" fill="#d4d4d4" stroke="none" stroke-width="0" stroke-linecap="butt"/><path d="M195.04425,257.94104c0,0 -3.58761,-1.14547 -4.21416,-2.92174c-1.80895,-5.1283 -10.5475,-29.90197 -10.5475,-29.90197l19.03161,-2.17108c0,0 -6.67411,7.70616 -6.7486,10.86282c-0.11571,4.90357 5.16819,20.93402 5.24262,21.12307c0.27719,0.70427 -0.52665,1.09743 -0.52665,1.09743z" fill="#2e2e2e" stroke="none" stroke-width="0" stroke-linecap="butt"/><path d="M173.13247,264.66965c0,0 -1.77786,3.52028 -3.2816,2.65219c-6.2005,-3.57955 -23.54897,-13.63452 -27.03877,-15.73686c-1.45593,-0.87708 0.97463,-3.3693 0.97463,-3.3693c0,0 2.90131,-3.77576 7.5011,-8.34082c4.46461,-4.43089 9.89259,-8.38641 9.5147,-10.93995c-0.62246,-4.20621 -5.39589,-9.11322 -7.23963,-12.17263c-1.691,-2.80595 0.75966,-6.86897 0.75966,-6.86897l23.97169,-19.56827l21.47892,32.61497c0,0 -13.94181,2.98669 -15.44484,7.84007c-2.16178,6.98052 -11.19586,33.88961 -11.19586,33.88961z" fill="#eb0095" stroke="none" stroke-width="0" stroke-linecap="butt"/><path d="M196.7322,218.71292c-1.70898,-2.64887 -11.29407,-16.95528 -20.35751,-27.67057c-0.00889,-0.01048 -0.10942,-0.43649 0.31391,-0.95071c4.03811,-4.90498 25.7238,-30.52678 25.7238,-30.52678c0,0 5.22837,69.89373 5.44252,80.27884c0.01712,0.8304 -0.49315,1.25335 -0.54541,1.25662c-4.30879,0.27033 -7.48156,0.28768 -7.48156,0.28768c0,0 -0.64839,0.15491 -0.59879,-0.58147c0.26024,-3.86466 0.74431,-17.06975 -2.49694,-22.09365z" fill="#2e2e2e" stroke="none" stroke-width="0" stroke-linecap="butt"/><path d="M182.7428,166.7409c0,0 -0.04086,-16.28044 -0.06693,-20.70027c-0.01252,-2.12324 2.66991,-4.17843 2.66991,-4.17843c0,0 8.93169,-0.29008 11.53987,-0.37477c1.33776,-0.04342 2.06877,3.3548 2.06877,3.3548l0.68637,23.8501c0,0 -1.57459,1.41812 -3.10751,1.5893c-3.60911,0.40309 -9.43136,-0.2211 -11.49134,-0.25501c-1.34525,-0.02215 -2.29908,-3.28572 -2.29908,-3.28572z" fill="none" stroke="#595959" stroke-width="1" stroke-linecap="butt"/><path d="M156.15181,170.35681l-4.08818,-8.60457l37.42276,-11.9773c0,0 -3.16498,6.51752 -2.89746,7.96055c0.11809,0.6371 2.78459,1.00103 2.78459,1.00103z" fill="#000000" stroke="none" stroke-width="0" stroke-linecap="butt"/><path d="M124.42197,242.34423l-28.00861,-67.48735l56.29936,-18.08189c0,0 0.80315,-0.13991 1.23913,0.46006c0.29852,0.4108 0.59452,0.90771 0.74471,1.41601c1.77318,6.0012 9.48917,26.29233 12.63279,35.07187c0.63813,1.78219 -0.4051,2.09115 -0.09982,2.85962c0.02065,0.05194 -29.60872,14.74873 -31.92882,17.77103c-2.84441,3.70527 -6.46588,8.55417 -8.45645,11.87764c-3.61419,6.03434 -2.42229,16.11304 -2.42229,16.11304z" fill="#2e2e2e" stroke="#2d2d2d" stroke-width="1" stroke-linecap="butt"/><path d="M121.41892,251.85791c0,0 -0.84454,-0.08115 -0.95999,-0.37024c-0.10368,-0.25964 -0.34335,-0.85982 -0.69926,-1.75113c-4.10789,-10.28726 -23.7011,-59.35402 -28.41582,-71.16101c-0.65434,-1.63866 -0.22488,-2.77801 -0.22488,-2.77801l6.05812,-2.41654l29.21681,74.3829c0,0 -0.19371,0.85551 -0.67594,1.25239c-0.89917,0.73995 -4.29902,2.8417 -4.29902,2.8417z" fill="#000000" stroke="none" stroke-width="0" stroke-linecap="butt"/><path d="M113.36278,206.43005l-1.48664,-3.55219l12.68638,-5.30944l1.48664,3.55219z" fill="#000000" stroke="none" stroke-width="0" stroke-linecap="butt"/><path d="M110.95895,201.08287l-1.48664,-3.55219l12.6864,-5.30944l1.48664,3.55219z" fill="#000000" stroke="none" stroke-width="0" stroke-linecap="butt"/><path d="M128.68068,200.29817l-1.48664,-3.55219l12.6864,-5.30944l1.48664,3.55219z" fill="#000000" stroke="none" stroke-width="0" stroke-linecap="butt"/><path d="M126.65388,194.4651l-1.48664,-3.55219l12.68638,-5.30944l1.48664,3.55219z" fill="#000000" stroke="none" stroke-width="0" stroke-linecap="butt"/><path d="M143.13564,194.27515l-1.48666,-3.55219l12.6864,-5.30944l1.48664,3.55219z" fill="#000000" stroke="none" stroke-width="0" stroke-linecap="butt"/><path d="M141.43224,188.22594l-1.48664,-3.55219l12.6864,-5.30944l1.48664,3.55219z" fill="#000000" stroke="none" stroke-width="0" stroke-linecap="butt"/><path d="M188.39034,165.8495c-0.46272,-2.10938 -3.05548,-14.46074 -3.05548,-14.46074c0,0 0.7275,-2.24939 1.81794,-2.33313c7.98742,-0.61336 40.20864,-3.40637 45.0537,-3.77842c1.14232,-0.08772 1.52977,1.06502 1.52977,1.06502l0.64179,11.73952c0,0 -0.32469,1.99573 -1.03018,2.04c-1.57056,0.09854 -8.31367,0.7487 -15.85328,1.77659c-4.44645,0.60619 -8.97635,1.63345 -13.40749,1.97552c-1.61217,0.12447 -1.49743,11.16654 -2.97817,11.27032c-0.72193,0.05061 -3.50847,-9.75147 -4.18427,-9.70407c-5.39168,0.37806 -6.91907,0.90102 -6.91907,0.90102c0,0 -1.41406,0.42527 -1.61522,-0.49162z" fill="#2e2e2e" stroke="none" stroke-width="0" stroke-linecap="butt"/><path d="M236.20376,171.67624c0,0 -1.17151,0.41739 -1.21215,-0.45998c-0.15747,-3.40066 -1.28229,-25.72071 -1.28229,-25.72071c0,0 3.29449,1.20969 4.3099,1.72653c0.90054,0.4584 2.0805,2.28894 2.0805,2.28894c0,0 1.35825,15.30989 1.58866,18.04782c0.07067,0.8395 -0.16412,1.28592 -0.16412,1.28592z" fill="#eb0095" stroke="none" stroke-width="0" stroke-linecap="butt"/><path d="M195.23051,193.83913c-0.14102,3.22585 -2.84192,5.67427 -6.03268,5.46871c-3.19076,-0.20556 -5.66309,-2.98728 -5.52207,-6.21313c0.14102,-3.22585 2.84192,-5.67429 6.03268,-5.46871c3.19076,0.20556 5.66309,2.98728 5.52207,6.21313z" fill="#ffffff" stroke="#000000" stroke-width="1" stroke-linecap="butt"/><path d="M183.89437,191.33068c0,0 -2.46276,11.29787 -3.75493,15.11788c-0.33286,0.98406 -2.3879,-1.69144 -2.47825,-1.20101c-0.20714,1.12427 2.04614,1.22341 2.04614,1.22341" fill="none" stroke="#000000" stroke-width="1" stroke-linecap="round"/><path d="M170.38046,269.45928l-29.70641,-17.24628" fill="none" stroke="#6f6f6f" stroke-width="1.5" stroke-linecap="round"/><path d="M287.76877,244.20105c0,0 -1.64443,0.08778 -2.97074,0.15854c-0.21557,0.01152 -1.91911,0.62185 -2.2141,0.6376c-3.38467,0.18061 -9.99766,0.0141 -9.99766,0.0141l-20.91142,19.99425l-80.6987,5.16126" fill="none" stroke="#6f6f6f" stroke-width="1.5" stroke-linecap="round"/><path d="M250.69612,196.89241c0,0 -0.36348,-2.70069 -0.4882,-3.91654c-0.1432,-1.396 -0.3233,-3.99396 -0.3233,-3.99396" fill="none" stroke="#ffffff" stroke-width="1" stroke-linecap="round"/><path d="M264.16845,186.69563c0,0 1.68419,4.24966 1.95758,5.77722c0.34721,1.9399 -1.18836,5.34375 -1.18836,5.34375" fill="none" stroke="#ffffff" stroke-width="1" stroke-linecap="round"/><path d="M255.07826,198.83671c0,0 0.87659,-4.50455 0.66163,-7.39906c-0.19056,-2.5659 -1.46931,-3.47834 -1.55703,-4.62913c-0.00719,-0.09416 0.04862,-1.27016 1.15616,-2.15369c1.16609,-0.93027 3.38988,-0.37861 3.44774,-0.51241c0.34654,-0.80141 1.9961,3.75501 2.25037,7.87243c0.25176,4.07648 -0.77465,8.32948 -0.77465,8.32948" fill="none" stroke="#ffffff" stroke-width="1" stroke-linecap="round"/><path d="M242.26516,203.91897l2.33861,-0.36955" fill="none" stroke="#ffffff" stroke-width="0.5" stroke-linecap="round"/><path d="M245.08935,207.10329l-3.07367,-0.73036" fill="none" stroke="#ffffff" stroke-width="0.5" stroke-linecap="round"/><path d="M242.50529,213.50412l-0.23274,-3.0267l3.09579,0.01943l0.41648,3.30168z" fill="none" stroke="#ffffff" stroke-width="0.5" stroke-linecap="round"/><path d="M245.07793,217.35373l-1.18508,6.55978" fill="none" stroke="#ffffff" stroke-width="0.5" stroke-linecap="round"/><path d="M245.77608,226.43386l1.65318,1.87854" fill="none" stroke="#ffffff" stroke-width="0.5" stroke-linecap="round"/><path d="M262.94984,204.21676l0.34742,3.04951" fill="none" stroke="#ffffff" stroke-width="1" stroke-linecap="round"/><path d="M266.02214,203.75468l0.37022,2.93482" fill="none" stroke="#ffffff" stroke-width="1" stroke-linecap="round"/><path d="M265.25155,211.82747c0,0 -8.46749,-0.53027 -8.68455,-0.5828c-1.26925,-0.30727 -1.96459,-1.62977 -1.98717,-1.83865c-0.12397,-1.14622 -1.32982,-4.97198 -1.32982,-4.97198" fill="none" stroke="#ffffff" stroke-width="1" stroke-linecap="round"/><path d="M251.57265,221.86397c0,0 0.23482,-2.21376 1.50795,-3.61401c1.17088,-1.28776 3.36314,-1.86787 4.38046,-2.25153c0.6724,-0.25358 4.62279,-0.42543 5.52926,-0.37321c1.60997,0.09279 3.62,1.36034 3.62,1.36034" fill="none" stroke="#ffffff" stroke-width="1" stroke-linecap="round"/><path d="M256.09292,224.31256c0,0 0.35949,-1.02939 0.85793,-1.57701c0.76271,-0.83799 1.84992,-1.34773 2.46516,-1.57972c0.32638,-0.12307 3.17472,-0.72512 4.51101,0.10565c1.41679,0.88083 1.31576,3.20133 1.31576,3.20133" fill="none" stroke="#ffffff" stroke-width="1" stroke-linecap="round"/><path d="M253.05815,237.77683c0,0 0.22129,-4.58583 0.38826,-4.76926c1.38678,-1.52358 3.13275,-3.68844 4.2514,-4.11028c0.5934,-0.22377 4.76426,-0.44591 7.19384,1.06459c2.57598,1.60149 2.73701,6.48521 2.73701,6.48521" fill="none" stroke="#ffffff" stroke-width="1" stroke-linecap="round"/><path d="M270.23177,143.35704c6.47619,0.05864 24.32213,-1.60736 30.72802,-2.1948c1.51775,-0.1392 2.01048,1.2425 2.01048,1.2425c0,0 0.83737,7.92139 0.80294,11.59118c-0.01048,1.11758 -0.21804,1.93697 -0.38302,1.93319c-1.57322,-0.03623 -31.64944,1.01139 -31.64944,1.01139c0,0 -2.60256,-13.59335 -1.50897,-13.58345z" fill="#2e2e2e" stroke="none" stroke-width="0" stroke-linecap="butt"/><path d="M264.40959,167.12095c0,0 -0.26336,-0.4302 -0.24744,-1.27252c0.05181,-2.7471 0.41123,-18.11294 0.41123,-18.11294c0,0 1.05839,-1.90346 1.92721,-2.41946c0.97964,-0.5818 4.33898,-1.97332 4.33898,-1.97332c0,0 2.01918,23.73824 2.04851,25.29632c0.00602,0.31965 0.32966,0.80578 -1.09958,0.53121c-2.49732,-0.47972 -7.37889,-2.04932 -7.37889,-2.04932z" data-paper-data="{&quot;index&quot;:null}" fill="#eb0095" stroke="none" stroke-width="0" stroke-linecap="butt"/><path d="M308.11442,217.40113c0,0 -0.0478,-0.15526 -0.11483,-1.06442c-0.45358,-6.15287 -5.28548,-72.19085 -5.28548,-72.19085c0,0 8.37404,-6.16096 12.20616,-12.12832c2.88756,-4.49647 6.03991,-17.21695 7.48854,-22.43682c0.47387,-1.70752 0.99688,-1.72951 0.99688,-1.72951c0,0 4.26304,0.68682 5.03491,0.98513c0.24723,0.09555 0.40243,0.62765 0.40243,0.62765c0,0 -1.84639,7.21137 -5.32095,18.21589c-3.9847,12.62022 -9.78496,30.03544 -11.88545,44.00546c-1.63025,10.84247 -0.36145,18.58172 0.33167,25.80812c0.75864,7.90938 0.41877,16.76889 0.72125,19.21802c0.08774,0.71033 -0.84884,0.34448 -0.84884,0.34448c0,0 -1.67905,-0.32862 -2.64573,-0.01049c-0.48105,0.15832 -1.08062,0.35562 -1.08062,0.35562z" fill="#000000" stroke="none" stroke-width="0" stroke-linecap="butt"/><path d="M310.49964,216.9035l0.04645,19.91263c0,0 -0.09462,1.38924 -0.53537,1.92202c-0.96794,1.17004 -4.9004,4.97972 -4.9004,4.97972c0,0 -0.93435,0.82069 -1.55447,0.84602c-2.11056,0.08626 -13.72005,-0.54176 -13.72005,-0.54176" fill="none" stroke="#2d2d2d" stroke-width="1" stroke-linecap="round"/><path d="M331.81129,175.86342c0.44143,1.60323 1.30222,3.4875 1.16559,4.81429c-0.12235,1.18822 -1.18772,1.88181 -1.73043,2.30316c-0.68661,0.53303 -1.24205,-0.39337 -1.9945,-1.4564c-0.50645,-0.71547 -1.26391,-1.20901 -1.60051,-2.4316c-0.83675,-3.03907 -0.58384,-6.22565 0.56488,-7.11742c0.81759,-0.63473 1.12759,-0.08324 1.96726,1.46811c0.34008,0.62832 1.38653,1.54382 1.62774,2.41986z" fill="#896c39" stroke="none" stroke-width="0" stroke-linecap="butt"/><path d="M336.23418,188.97183c0.44142,1.60323 0.00593,3.71122 -0.13069,5.03801c-0.12235,1.18822 -0.8925,0.88131 -1.43521,1.30266c-0.68658,0.53304 -2.51936,0.21929 -3.27181,-0.84374c-0.50645,-0.71547 -1.69019,-1.48636 -2.02682,-2.70893c-0.83675,-3.03907 0.82454,-5.56045 1.97327,-6.45221c0.81759,-0.63473 1.12759,-0.08324 1.96726,1.46811c0.34008,0.62832 2.6828,1.3201 2.92401,2.19614z" fill="#896c39" stroke="none" stroke-width="0" stroke-linecap="butt"/><path d="M339.94412,200.96664c-1.32899,1.15999 -2.81323,0.79155 -3.35739,-0.08893c-0.76453,-1.23703 -1.43974,-4.1801 0.40652,-6.73497c0.74273,-1.02783 2.12126,-1.33628 2.84586,-1.82962c1.07657,-0.73297 2.90339,-0.38629 3.36036,0.35312c0.36122,0.58445 1.37692,2.04761 1.07623,3.20368c-0.33574,1.29083 -2.31564,1.06768 -3.28962,2.4155c-0.07868,0.10889 -0.5833,2.2809 -1.04197,2.68124z" data-paper-data="{&quot;index&quot;:null}" fill="#896c39" stroke="none" stroke-width="0" stroke-linecap="butt"/><path d="M345.03982,186.47693c-1.32899,1.15999 -4.90685,0.18269 -5.45101,-0.69779c-0.76453,-1.23703 -1.2144,-1.43914 0.63186,-3.99401c0.74273,-1.02783 1.26974,-0.92785 1.99432,-1.42118c1.07657,-0.73297 1.60551,-1.60727 2.06248,-0.86786c0.36122,0.58445 1.7106,2.30656 1.40991,3.46263c-0.33574,1.29083 -0.18884,3.11788 -0.64753,3.51823z" data-paper-data="{&quot;index&quot;:null}" fill="#632d2d" stroke="none" stroke-width="0" stroke-linecap="butt"/><path d="M333.66593,172.95027c-0.76453,-1.23703 -3.02906,-1.02963 -1.18281,-3.58451c0.74273,-1.02783 1.26974,-0.92785 1.99432,-1.42118c1.07657,-0.73297 1.71924,0.72636 2.17621,1.46575c0.36122,0.58445 1.28321,1.06608 0.98253,2.22212c-0.13302,0.51137 -0.003,1.47559 -0.01321,2.20936c-0.01725,1.23972 -3.62842,-0.35987 -3.95703,-0.89156z" data-paper-data="{&quot;index&quot;:null}" fill="#bf6600" stroke="none" stroke-width="0" stroke-linecap="butt"/><path d="M361.07906,213.16976l-1.69475,-8.26495" fill="none" stroke="#d6d6d6" stroke-width="1" stroke-linecap="round"/><path d="M369.33945,203.24644l-7.13538,-42.72667c0,0 -0.38938,-0.90152 0.74912,-0.98747c4.7804,-0.36093 37.89427,-2.41399 37.89427,-2.41399c0,0 1.15221,-0.55437 1.32857,1.17253c0.52073,5.09956 2.75577,32.65336 3.39124,40.31646c0.10747,1.29586 -0.68758,1.45521 -0.68758,1.45521c0,0 -29.08211,2.75246 -33.69627,3.16582c-1.21333,0.1087 -1.84398,0.01813 -1.84398,0.01813z" fill="#e2d9c9" stroke="none" stroke-width="0" stroke-linecap="butt"/><path d="M376.36495,176.1554c-0.485,-0.37636 -0.10867,-0.86133 -0.10867,-0.86133l0.15745,-0.19942c0.51307,-0.75859 0.56761,-1.55942 0.59343,-2.46747c0,0 0.01911,-0.61359 0.63269,-0.59448c0.61359,0.01911 0.59445,0.63268 0.59445,0.63268c-0.03882,1.15887 -0.16693,2.1109 -0.79149,3.0988l-0.21657,0.28259c0,0 -0.37636,0.485 -0.86133,0.10867z" fill="#e2d9c9" stroke="none" stroke-width="0.5" stroke-linecap="butt"/><path d="M375.76781,171.65141c-0.23436,-0.56737 0.33299,-0.80175 0.33299,-0.80175l0.27912,-0.07742c0.66621,-0.5241 0.77214,-2.00991 0.99149,-2.81c0,0 0.16231,-0.59204 0.75435,-0.42974c0.59204,0.16231 0.42971,0.75435 0.42971,0.75435c-0.33785,1.23231 -0.42758,2.5048 -1.35586,3.39944l-0.6301,0.29812c0,0 -0.56737,0.23438 -0.80173,-0.33299z" fill="#c8c0b2" stroke="#c7c0b1" stroke-width="1" stroke-linecap="butt"/><path d="M394.16572,177.1521l-0.46809,-0.51648c-0.51544,-1.18171 -0.11155,-2.39176 0.04769,-3.65958c0,0 0.07653,-0.6091 0.68559,-0.53258c0.6091,0.07653 0.53258,0.68562 0.53258,0.68562c-0.10341,0.82316 -0.57394,2.23648 -0.1589,2.97555l0.22827,0.17833c0,0 0.43456,0.4336 0.00097,0.86815c-0.43357,0.43456 -0.86815,0.00096 -0.86815,0.00096z" data-paper-data="{&quot;index&quot;:null}" fill="#c8c0b2" stroke="#c7c0b1" stroke-width="1" stroke-linecap="butt"/><path d="M381.94439,192.35173c-0.23436,-0.56737 0.33299,-0.80175 0.33299,-0.80175l0.27912,-0.07742c0.66621,-0.5241 0.77214,-2.00991 0.99149,-2.81003c0,0 0.16231,-0.59202 0.75435,-0.42971c0.59204,0.16231 0.42971,0.75435 0.42971,0.75435c-0.33785,1.23231 -0.42758,2.5048 -1.35586,3.39944l-0.6301,0.29812c0,0 -0.56737,0.23438 -0.80173,-0.33299z" fill="#c8c0b2" stroke="#c7c0b1" stroke-width="1" stroke-linecap="butt"/><path d="M399.97764,157.2969c4.7804,-0.36093 0.86985,-0.17859 0.86985,-0.17859c0,0 1.15221,-0.55437 1.32857,1.17253c0.52073,5.09956 2.75577,32.65336 3.39124,40.31646c0.10747,1.29586 -0.14056,1.22682 -0.12233,1.19874c0.01055,-0.01627 0.55863,0.06583 -1.13346,0.21741c-0.5788,0.05185 -0.02754,-10.12486 -1.00808,-20.18172c-1.07499,-11.02554 -3.63215,-22.52168 -3.32575,-22.54483z" fill="#cec6b8" stroke="none" stroke-width="0" stroke-linecap="butt"/><path d="M405.02044,200.27759l-3.98399,-43.04031l6.85439,-1.22409l3.0625,44.00783z" fill="#717171" stroke="none" stroke-width="0" stroke-linecap="butt"/><path d="M411.20628,201.63929l-3.2516,-45.39826c0,0 2.42684,-0.98902 3.70932,-1.14207c1.28962,-0.15389 5.17315,0.32126 5.17315,0.32126l2.53176,45.35174z" fill="#fff700" stroke="none" stroke-width="0" stroke-linecap="butt"/><path d="M409.83222,182.86322l-0.93433,-10.56736l8.96753,-1.48574l0.37691,10.72005z" fill="#ff0000" stroke="none" stroke-width="0" stroke-linecap="butt"/><path d="M419.71904,200.75162l-3.10429,-46.51466c0,0 8.11897,0.23213 10.40516,0.28148c1.49558,0.03226 2.75037,2.39264 2.75037,2.39264l2.22969,39.58111c0,0 -0.56704,3.15179 -1.10081,3.56783c-1.67541,1.30582 -11.18011,0.6916 -11.18011,0.6916z" fill="#2e2e2e" stroke="none" stroke-width="0" stroke-linecap="butt"/></g></g></svg>